# Blender 5.0.1
# www.blender.org
g Border_Cube
v 5.281714 0.059392 -5.281714
v 5.281714 -0.059392 -5.281714
v 5.281714 0.059392 5.281714
v 5.281714 -0.059392 5.281714
v -5.281714 0.059392 -5.281714
v -5.281714 -0.059392 -5.281714
v -5.281714 0.059392 5.281714
v -5.281714 -0.059392 5.281714
v -5.500000 -0.059392 -5.500000
v -5.500000 -0.059392 5.500000
v 5.500000 -0.059392 -5.500000
v 5.500000 0.059392 5.500000
v -5.500000 0.059392 5.500000
v 5.500000 0.059392 -5.500000
v 5.500000 -0.059392 5.500000
v -5.500000 0.059392 -5.500000
vn -1.0000 -0.0000 -0.0000
vn -0.0000 -0.0000 1.0000
vn -0.0000 -0.0000 -1.0000
vn 1.0000 -0.0000 -0.0000
vn -0.0000 -1.0000 -0.0000
vn -0.0000 1.0000 -0.0000
vt 0.048749 0.529696
vt 0.951251 0.529696
vt 0.951251 0.470304
vt 0.048749 0.470304
vt 1.000000 0.470304
vt 1.000000 0.529696
vt 0.000000 0.529696
vt 0.000000 0.470304
vt 0.048749 0.951251
vt 0.048749 0.048749
vt 0.000000 0.000000
vt 0.000000 1.000000
vt 0.951251 0.951251
vt 1.000000 1.000000
vt 0.951251 0.048749
vt 1.000000 0.000000
s 0
f 3/1/1 1/2/1 2/3/1 4/4/1
f 15/5/2 12/6/2 13/7/2 10/8/2
f 10/8/1 13/7/1 16/6/1 9/5/1
f 7/1/3 3/2/3 4/3/3 8/4/3
f 11/5/4 14/6/4 12/7/4 15/8/4
f 9/8/3 16/7/3 14/6/3 11/5/3
f 6/9/5 8/10/5 10/11/5 9/12/5
f 2/13/5 6/9/5 9/12/5 11/14/5
f 3/15/6 7/10/6 13/11/6 12/16/6
f 1/13/6 3/15/6 12/16/6 14/14/6
f 8/10/5 4/15/5 15/16/5 10/11/5
f 7/10/6 5/9/6 16/12/6 13/11/6
f 5/9/6 1/13/6 14/14/6 16/12/6
f 4/15/5 2/13/5 11/14/5 15/16/5
f 1/2/2 5/1/2 6/4/2 2/3/2
f 5/2/4 7/1/4 8/4/4 6/3/4
